<svg xmlns="http://www.w3.org/2000/svg" viewBox="0 0 200 200">
<defs>
<linearGradient id="top" x1="62" y1="72" x2="140" y2="110" gradientUnits="userSpaceOnUse"><stop stop-color="#1B08FF"/><stop offset=".5" stop-color="#2249FF"/><stop offset="1" stop-color="#5A74FF"/></linearGradient>
<linearGradient id="bottom" x1="65" y1="150" x2="125" y2="120" gradientUnits="userSpaceOnUse"><stop stop-color="#7900FF"/><stop offset=".5" stop-color="#A72AFF"/><stop offset="1" stop-color="#D84FFF"/></linearGradient>
<linearGradient id="side" x1="54" y1="56" x2="67" y2="143" gradientUnits="userSpaceOnUse"><stop stop-color="#D9F7FF"/><stop offset=".5" stop-color="#C9A7FF"/><stop offset="1" stop-color="#B72DFF"/></linearGradient>
</defs>
<path d="M63.39 86.18 L127.78 118.94 A12.8 12.8 0 0 0 139.38 96.12 L75 63.36 A12.8 12.8 0 0 0 63.39 86.18 Z" fill="url(#top)"/>
<path d="M75.16 159.15 L124.48 133.16 A12.8 12.8 0 0 0 112.55 110.51 L63.23 136.5 A12.8 12.8 0 0 0 75.16 159.15 Z" fill="url(#bottom)"/>
<path d="M53.84 55.73 A12.8 12.8 0 0 1 66.65 68.53 L66.65 129.91 A12.8 12.8 0 0 1 53.84 142.71 A12.8 12.8 0 0 1 41.04 129.91 L41.04 68.53 A12.8 12.8 0 0 1 53.84 55.73 Z" fill="url(#side)"/>
<circle cx="67.69" cy="54.06" r="14.69" fill="#fff"/>
</svg>